<svg width="615" height="547" viewBox="0 0 615 547" fill="none" xmlns="http://www.w3.org/2000/svg">
<path d="M447.999 0H260V167.873C260 170.838 262.118 173.801 266.349 176.059L338.649 214.614C347.113 219.129 360.888 219.129 369.353 214.614L441.651 176.061C445.884 173.804 448 170.838 448 167.873L447.999 0Z" fill="url(#paint0_linear_1_3844)"/>
<g opacity="0.4">
<g opacity="0.24">
<path d="M353.99 522.768L113.972 384.194L353.983 245.624L594 384.198L353.99 522.768Z" fill="#84BCFF"/>
</g>
</g>
<g opacity="0.2">
<g opacity="0.24">
<path d="M354.004 546.377L93 395.686L353.996 245L615 395.691L354.004 546.377Z" fill="#84BCFF"/>
</g>
</g>
<g opacity="0.13">
<path d="M353.989 501.277L151.195 384.194L353.983 267.114L556.778 384.197L353.989 501.277Z" fill="#84BCFF"/>
</g>
<path opacity="0.4" d="M535.066 367.188V350.987L526.354 354.967C529.637 335.122 500.65 380.43 491.765 381.666L392.138 439.926L348.658 442.909L209.876 384.009L213.084 382.157C201.225 376.617 194.833 363.941 188.419 352.379L179.075 357.951L173.524 351.493V367.693C173.524 373.865 177.596 380.038 185.733 384.737L324.774 465.01C341.052 474.405 367.54 474.405 383.821 465.01L522.855 384.737C530.863 380.114 534.931 374.064 535.061 367.994C535.067 367.721 535.055 367.452 535.045 367.18L535.066 367.188Z" fill="#397BFF" fill-opacity="0.58"/>
<path d="M535.066 352.387V333.602L526.353 328.756C523.89 343.624 506.394 353.42 491.765 355.456L392.138 413.716L348.658 429.416L209.875 357.796L213.082 355.944C201.224 350.405 194.832 337.731 188.418 326.167L179.074 331.74L173.522 333.3V352.889C173.522 359.061 177.594 365.236 185.732 369.935L324.772 450.208C341.05 459.603 367.539 459.603 383.819 450.208L522.854 369.935C530.862 365.312 534.93 359.262 535.06 353.19C535.066 352.916 535.054 352.647 535.044 352.377L535.066 352.387Z" fill="url(#paint1_linear_1_3844)"/>
<path d="M535.066 352.387V333.602L526.353 328.756C523.89 343.624 506.394 353.42 491.765 355.456L392.138 413.716L348.658 429.416L209.875 357.796L213.082 355.944C201.224 350.405 194.832 337.731 188.418 326.167L179.074 331.74L173.522 333.3V352.889C173.522 359.061 177.594 365.236 185.732 369.935L324.772 450.208C341.05 459.603 367.539 459.603 383.819 450.208L522.854 369.935C530.862 365.312 534.93 359.262 535.06 353.19C535.066 352.916 535.054 352.647 535.044 352.377L535.066 352.387Z" fill="#84BCFF"/>
<path d="M491.765 355.454L392.138 413.715L354.294 427.381V457.255C364.987 457.255 375.681 454.907 383.822 450.206L522.856 369.933C530.864 365.31 534.933 359.26 535.062 353.188C535.068 352.914 535.056 352.645 535.046 352.375L535.066 365.1V333.602L527.102 329.173H526.269C523.552 343.804 506.255 353.438 491.765 355.454Z" fill="#84BCFF"/>
<path d="M324.774 430.921L185.734 350.648C169.454 341.253 169.454 325.955 185.734 316.556L324.769 236.283C341.047 226.887 367.537 226.887 383.818 236.283L522.856 316.556C539.134 325.952 539.137 341.246 522.856 350.645L383.822 430.918C367.541 440.32 341.053 440.32 324.774 430.921Z" fill="url(#paint2_linear_1_3844)"/>
<path d="M338.94 384.219L266.624 342.467C258.158 337.577 258.158 329.624 266.624 324.735L338.939 282.985C347.405 278.097 361.181 278.097 369.649 282.985L441.965 324.737C450.431 329.626 450.431 337.58 441.965 342.469L369.651 384.218C361.185 389.107 347.407 389.107 338.94 384.219Z" fill="#397BFF"/>
<g style="mix-blend-mode:lighten">
<path d="M338.94 384.219L266.624 342.467C258.158 337.577 258.158 329.624 266.624 324.735L338.939 282.985C347.405 278.097 361.181 278.097 369.649 282.985L441.965 324.737C450.431 329.626 450.431 337.58 441.965 342.469L369.651 384.218C361.185 389.107 347.407 389.107 338.94 384.219Z" fill="url(#paint3_radial_1_3844)"/>
</g>
<path d="M263.835 340.491C264.698 339.743 265.632 339.081 266.624 338.515L338.938 296.766C347.404 291.877 361.18 291.877 369.649 296.766L441.965 338.518C442.956 339.084 443.89 339.746 444.753 340.494C450.297 335.631 449.368 329.012 441.965 324.738L369.649 282.985C361.18 278.097 347.405 278.097 338.938 282.985L266.624 324.735C259.22 329.009 258.292 335.628 263.835 340.491Z" fill="url(#paint4_radial_1_3844)"/>
<path d="M354.296 433.45C344.035 433.45 333.771 431.196 325.966 426.687L193.46 350.185C185.832 345.781 181.627 339.889 181.627 333.6C181.627 327.311 185.83 321.422 193.458 317.017L325.96 240.517C341.583 231.498 367.001 231.5 382.625 240.517L515.13 317.022C522.759 321.426 526.962 327.316 526.962 333.605C526.962 339.893 522.759 345.782 515.13 350.187L382.63 426.687C374.816 431.196 364.556 433.45 354.296 433.45ZM326.353 426.01C341.76 434.905 366.83 434.905 382.235 426.01L514.739 349.51C522.119 345.25 526.181 339.601 526.181 333.604C526.181 327.606 522.119 321.956 514.739 317.696L382.233 241.196C366.826 232.299 341.757 232.299 326.35 241.196L193.85 317.692C186.47 321.952 182.408 327.602 182.408 333.6C182.408 339.598 186.472 345.248 193.852 349.508L326.353 426.01Z" fill="#5351AF"/>
<path d="M354.296 410.702C346.366 410.702 338.438 408.958 332.403 405.473L230.201 346.468C224.289 343.052 221.032 338.484 221.032 333.601C221.032 328.718 224.287 324.148 230.201 320.732L332.396 261.728C344.47 254.757 364.116 254.757 376.189 261.728L478.391 320.735C484.305 324.15 487.561 328.719 487.561 333.604C487.561 338.489 484.303 343.055 478.391 346.47L376.194 405.471C370.155 408.958 362.226 410.702 354.296 410.702ZM354.296 257.271C346.508 257.271 338.718 258.983 332.79 262.406L230.585 321.409C224.923 324.678 221.806 329.008 221.806 333.601C221.806 338.194 224.923 342.524 230.585 345.792L332.787 404.797C344.646 411.644 363.94 411.644 375.798 404.797L477.999 345.793C483.661 342.526 486.78 338.196 486.78 333.603C486.78 329.01 483.661 324.68 477.999 321.41L375.799 262.404C369.87 258.981 362.08 257.269 354.292 257.269L354.296 257.271Z" fill="#5351AF"/>
<g opacity="0.4">
<path d="M338.94 384.219L266.624 342.467C258.158 337.577 258.158 329.624 266.624 324.735L338.939 282.985C347.405 278.097 361.181 278.097 369.649 282.985L441.965 324.737C450.431 329.626 450.431 337.58 441.965 342.469L369.651 384.218C361.185 389.107 347.407 389.107 338.94 384.219Z" fill="#397BFF" fill-opacity="0.58"/>
</g>
<path d="M522.856 350.649L383.821 430.922C367.541 440.318 341.053 440.318 324.774 430.922L185.734 350.649C178.457 346.447 174.443 341.071 173.672 335.564C172.717 342.375 176.731 349.376 185.734 354.573L324.774 434.846C341.052 444.242 367.54 444.242 383.821 434.846L522.856 354.573C531.859 349.374 535.873 342.375 534.918 335.566C534.145 341.07 530.133 346.449 522.856 350.649Z" fill="white"/>
<path opacity="0.4" d="M522.855 262.275L383.817 182.002C367.537 172.606 341.046 172.606 324.768 182.002L185.733 262.275C169.453 271.67 169.453 286.965 185.733 296.364L324.773 376.637C341.051 386.033 367.54 386.033 383.82 376.637L522.855 296.364C539.135 286.968 539.135 271.674 522.855 262.275Z" fill="#397BFF" fill-opacity="0.58"/>
<path d="M353.2 368.251C345.701 368.251 338.205 366.604 332.5 363.31L308.57 349.334C302.976 346.105 299.895 341.78 299.898 337.156C299.9 332.532 302.979 328.209 308.57 324.98L334.688 309.607C346.099 303.015 364.672 303.015 376.091 309.607L400.024 323.583C405.617 326.81 408.699 331.137 408.699 335.759C408.699 340.381 405.617 344.705 400.024 347.935L373.903 363.309C368.195 366.604 360.697 368.251 353.2 368.251ZM332.892 362.636C344.093 369.1 362.313 369.098 373.51 362.636L399.628 347.258C404.973 344.173 407.916 340.089 407.916 335.756C407.916 331.423 404.971 327.339 399.628 324.254L375.696 310.276C364.501 303.814 346.277 303.811 335.078 310.276L308.962 325.651C303.617 328.736 300.674 332.821 300.672 337.152C300.67 341.484 303.617 345.571 308.96 348.656L332.892 362.636Z" fill="#397BFF" fill-opacity="0.58"/>
<path opacity="0.4" d="M412.752 314.899V301.924L405.771 305.112C408.402 289.214 385.18 325.51 378.063 326.501L383.514 324.245L348.684 326.635L324.959 329.78L327.53 328.297C318.028 323.858 312.909 313.702 307.77 304.443L300.284 308.905L295.838 303.732V316.709C295.838 321.654 299.099 326.599 305.62 330.363L329.549 344.339C342.593 351.868 363.811 351.868 376.853 344.339L402.971 328.961C409.387 325.257 412.646 320.413 412.75 315.552C412.75 315.334 412.744 315.117 412.737 314.899H412.752Z" fill="#397BFF" fill-opacity="0.58"/>
<path d="M412.752 303.044V287.993L405.771 284.11C403.801 296.02 389.783 303.868 378.063 305.499L383.514 303.244L348.684 315.82L324.959 308.779L327.53 307.296C318.028 302.857 312.909 292.701 307.77 283.44L300.284 287.904L295.838 289.153V304.843C295.838 309.788 299.099 314.733 305.62 318.498L329.549 332.478C342.593 340.007 363.811 340.01 376.853 332.478L402.971 317.101C409.387 313.397 412.646 308.553 412.75 303.692C412.75 303.474 412.744 303.257 412.737 303.039L412.752 303.044Z" fill="url(#paint5_linear_1_3844)"/>
<path d="M412.752 303.044V287.993L405.771 284.11C403.801 296.02 389.783 303.868 378.063 305.499L383.514 303.244L348.684 315.82L324.959 308.779L327.53 307.296C318.028 302.857 312.909 292.701 307.77 283.44L300.284 287.904L295.838 289.153V304.843C295.838 309.788 299.099 314.733 305.62 318.498L329.549 332.478C342.593 340.007 363.811 340.01 376.853 332.478L402.971 317.101C409.387 313.397 412.646 308.553 412.75 303.692C412.75 303.474 412.744 303.257 412.737 303.039L412.752 303.044Z" fill="url(#paint6_linear_1_3844)"/>
<path opacity="0.3" d="M378.061 305.505L383.513 303.249L353.197 314.195V338.132C361.763 338.132 370.33 336.25 376.85 332.485L402.968 317.107C409.384 313.403 412.644 308.559 412.747 303.698C412.747 303.48 412.741 303.263 412.734 303.045L412.75 313.238V287.997L406.372 284.448H405.701C403.528 296.171 389.67 303.887 378.061 305.505Z" fill="#397BFF"/>
<path d="M329.549 317.03L305.619 303.055C292.575 295.525 292.575 283.275 305.619 275.744L331.739 260.366C344.783 252.837 365.999 252.837 379.041 260.366L402.971 274.342C416.015 281.871 416.015 294.123 402.971 301.653L376.848 317.03C363.811 324.56 342.589 324.56 329.549 317.03Z" fill="url(#paint7_linear_1_3844)"/>
<path d="M353.332 318.888C345.743 318.888 338.155 317.22 332.377 313.882L311.332 301.594C305.686 298.335 302.575 293.973 302.575 289.314C302.575 284.656 305.684 280.295 311.332 277.036L334.299 263.513C345.857 256.84 364.658 256.842 376.215 263.513L397.258 275.803C402.903 279.062 406.015 283.422 406.015 288.081C406.015 292.74 402.908 297.098 397.258 300.357L374.292 313.887C368.512 317.218 360.922 318.888 353.332 318.888ZM332.689 313.344C344.074 319.912 362.595 319.912 373.974 313.344L396.941 299.821C402.389 296.674 405.387 292.506 405.387 288.083C405.387 283.66 402.388 279.488 396.941 276.343L375.896 264.053C364.519 257.485 345.994 257.485 334.611 264.053L311.645 277.574C306.195 280.721 303.196 284.889 303.196 289.314C303.196 293.739 306.197 297.909 311.645 301.054L332.689 313.344Z" fill="#5351AF"/>
<path d="M402.97 301.653L376.853 317.03C363.808 324.56 342.591 324.56 329.55 317.03L305.619 303.054C299.79 299.689 296.574 295.38 295.956 290.97C295.191 296.426 298.406 302.035 305.619 306.204L329.549 320.179C342.593 327.709 363.811 327.709 376.852 320.179L402.97 304.798C410.183 300.634 413.398 295.027 412.633 289.571C412.015 293.979 408.8 298.288 402.97 301.653Z" fill="white"/>
<path opacity="0.4" d="M324.958 316.543L327.165 316.251C326.86 316.104 326.564 315.947 326.27 315.787L324.958 316.543Z" fill="#397BFF" fill-opacity="0.58"/>
<path opacity="0.4" d="M379.629 312.654L379.518 312.662L378.059 313.265C378.616 313.161 379.148 312.954 379.629 312.654Z" fill="#397BFF" fill-opacity="0.58"/>
<path opacity="0.4" d="M405.951 291.793C405.987 291.376 405.984 290.956 405.943 290.54C405.91 290.936 405.853 291.381 405.77 291.875L405.951 291.793Z" fill="#397BFF" fill-opacity="0.58"/>
<path opacity="0.8" d="M412.752 301.664L412.736 301.658C412.744 301.874 412.754 302.092 412.75 302.308C412.646 307.173 409.386 312.02 402.972 315.724L376.848 331.102C363.804 338.631 342.586 338.631 329.545 331.102L305.619 317.124C299.099 313.361 295.837 308.416 295.837 303.471V304.85C295.837 309.795 299.099 314.74 305.619 318.504L329.548 332.479C342.593 340.008 363.81 340.008 376.852 332.479L402.972 317.101C409.386 313.398 412.641 308.553 412.75 303.692C412.75 303.474 412.743 303.258 412.736 303.039L412.752 303.045V301.664Z" fill="#397BFF" fill-opacity="0.58"/>
<path opacity="0.4" d="M412.753 290.738V277.755L405.772 280.948C408.402 265.048 385.181 301.346 378.064 302.337L383.515 300.081L348.685 302.469L324.959 305.616L327.53 304.133C318.029 299.694 312.909 289.538 307.77 280.277L300.285 284.741L295.839 279.566V292.545C295.839 297.49 299.1 302.435 305.62 306.199L329.55 320.172C342.594 327.701 363.812 327.701 376.853 320.172L402.971 304.794C409.388 301.091 412.647 296.243 412.751 291.378C412.751 291.162 412.744 290.944 412.737 290.728L412.753 290.738Z" fill="#397BFF" fill-opacity="0.58"/>
<path d="M412.752 278.88V263.829L405.771 259.946C403.801 271.859 389.783 279.704 378.063 281.335L383.515 279.08L348.684 291.658L324.959 284.615L327.53 283.132C318.028 278.693 312.909 268.536 307.77 259.276L300.284 263.74L295.838 264.992V280.681C295.838 285.626 299.099 290.571 305.62 294.335L329.549 308.311C342.594 315.84 363.811 315.84 376.853 308.311L402.971 292.933C409.387 289.23 412.647 284.382 412.751 279.517C412.751 279.301 412.744 279.083 412.737 278.867L412.752 278.88Z" fill="url(#paint8_linear_1_3844)"/>
<path d="M412.752 278.88V263.829L405.771 259.946C403.801 271.859 389.783 279.704 378.063 281.335L383.515 279.08L348.684 291.658L324.959 284.615L327.53 283.132C318.028 278.693 312.909 268.536 307.77 259.276L300.284 263.74L295.838 264.992V280.681C295.838 285.626 299.099 290.571 305.62 294.335L329.549 308.311C342.594 315.84 363.811 315.84 376.853 308.311L402.971 292.933C409.387 289.23 412.647 284.382 412.751 279.517C412.751 279.301 412.744 279.083 412.737 278.867L412.752 278.88Z" fill="url(#paint9_linear_1_3844)"/>
<path opacity="0.3" d="M378.062 281.339L383.513 279.082L353.197 290.028V313.964C361.763 313.964 370.33 312.083 376.85 308.317L402.968 292.939C409.384 289.236 412.644 284.388 412.748 279.524C412.748 279.307 412.741 279.089 412.734 278.873L412.75 289.067V263.831L406.372 260.284H405.701C403.528 272.005 389.67 279.723 378.062 281.339Z" fill="#397BFF"/>
<path d="M329.549 292.866L305.619 278.89C292.575 271.361 292.575 259.109 305.619 251.579L331.739 236.202C344.783 228.672 365.999 228.672 379.042 236.202L402.971 250.177C416.016 257.707 416.016 269.959 402.971 277.488L376.848 292.866C363.811 300.395 342.589 300.395 329.549 292.866Z" fill="url(#paint10_linear_1_3844)"/>
<path d="M353.332 294.723C345.743 294.723 338.155 293.056 332.377 289.718L311.332 277.428C305.687 274.169 302.575 269.807 302.575 265.148C302.575 260.49 305.684 256.131 311.332 252.872L334.299 239.349C345.855 232.676 364.655 232.678 376.216 239.349L397.258 251.639C402.904 254.898 406.015 259.26 406.015 263.917C406.015 268.574 402.908 272.936 397.258 276.195L374.294 289.718C368.512 293.053 360.923 294.723 353.332 294.723ZM332.689 289.178C344.075 295.746 362.596 295.746 373.974 289.178L396.942 275.655C402.389 272.51 405.388 268.342 405.388 263.917C405.388 259.492 402.388 255.324 396.942 252.179L375.897 239.889C364.518 233.321 345.997 233.316 334.612 239.889L311.645 253.41C306.196 256.555 303.196 260.723 303.196 265.148C303.196 269.573 306.198 273.743 311.645 276.89L332.689 289.178Z" fill="#5351AF"/>
<path d="M402.97 277.489L376.853 292.866C363.808 300.396 342.591 300.396 329.55 292.866L305.62 278.891C299.79 275.526 296.574 271.215 295.956 266.807C295.191 272.263 298.406 277.87 305.62 282.04L329.549 296.016C342.594 303.545 363.811 303.545 376.852 296.016L402.97 280.637C410.183 276.472 413.398 270.865 412.634 265.409C412.015 269.815 408.801 274.124 402.97 277.489Z" fill="white"/>
<path opacity="0.4" d="M324.959 292.377L327.166 292.085C326.861 291.938 326.565 291.783 326.271 291.623L324.959 292.377Z" fill="#397BFF" fill-opacity="0.58"/>
<path opacity="0.4" d="M379.629 288.49L379.519 288.498L378.06 289.101C378.616 288.996 379.148 288.789 379.629 288.49Z" fill="#397BFF" fill-opacity="0.58"/>
<path opacity="0.4" d="M405.952 267.632C405.988 267.215 405.985 266.794 405.943 266.377C405.911 266.774 405.852 267.218 405.771 267.714L405.952 267.632Z" fill="#397BFF" fill-opacity="0.58"/>
<path opacity="0.8" d="M412.753 277.5L412.736 277.492C412.745 277.71 412.755 277.928 412.75 278.145C412.646 283.01 409.387 287.855 402.972 291.555L376.849 306.938C363.804 314.467 342.587 314.467 329.545 306.938L305.616 292.962C299.095 289.197 295.834 284.252 295.834 279.307V280.688C295.834 285.633 299.095 290.578 305.616 294.341L329.545 308.317C342.59 315.846 363.807 315.846 376.849 308.317L402.969 292.939C409.383 289.236 412.638 284.388 412.746 279.524C412.746 279.308 412.74 279.09 412.733 278.873L412.749 278.88L412.753 277.5Z" fill="#397BFF" fill-opacity="0.58"/>
<path opacity="0.4" d="M412.752 266.571V253.594L405.771 256.782C408.402 240.884 385.18 277.182 378.063 278.171L383.514 275.915L348.684 278.305L324.959 281.45L327.53 279.967C318.028 275.528 312.909 265.372 307.77 256.113L300.284 260.577L295.838 255.402V268.379C295.838 273.324 299.099 278.269 305.62 282.035L329.549 296.011C342.593 303.54 363.811 303.54 376.853 296.011L402.971 280.631C409.387 276.927 412.646 272.083 412.75 267.222C412.75 267.004 412.744 266.788 412.737 266.569L412.752 266.571Z" fill="#397BFF" fill-opacity="0.58"/>
<path d="M412.752 254.714V239.67L405.771 235.788C403.801 247.697 389.783 255.546 378.063 257.177L383.515 254.921L348.684 267.492L324.959 260.451L327.53 258.968C318.028 254.529 312.909 244.372 307.77 235.112L300.283 239.579L295.837 240.829V256.518C295.837 261.463 299.099 266.408 305.619 270.174L329.548 284.15C342.593 291.679 363.81 291.679 376.852 284.15L402.97 268.77C409.386 265.066 412.646 260.222 412.75 255.361C412.75 255.143 412.743 254.927 412.736 254.708L412.752 254.714Z" fill="url(#paint11_linear_1_3844)"/>
<path d="M412.752 254.714V239.67L405.771 235.788C403.801 247.697 389.783 255.546 378.063 257.177L383.515 254.921L348.684 267.492L324.959 260.451L327.53 258.968C318.028 254.529 312.909 244.372 307.77 235.112L300.283 239.579L295.837 240.829V256.518C295.837 261.463 299.099 266.408 305.619 270.174L329.548 284.15C342.593 291.679 363.81 291.679 376.852 284.15L402.97 268.77C409.386 265.066 412.646 260.222 412.75 255.361C412.75 255.143 412.743 254.927 412.736 254.708L412.752 254.714Z" fill="url(#paint12_linear_1_3844)"/>
<path opacity="0.3" d="M378.061 257.175L383.513 254.919L353.197 265.865V289.799C361.763 289.799 370.33 287.918 376.85 284.154L402.968 268.774C409.384 265.071 412.644 260.226 412.747 255.365C412.747 255.147 412.741 254.931 412.734 254.713L412.75 264.907V239.67L406.372 236.122H405.701C403.528 247.841 389.67 255.559 378.061 257.175Z" fill="#397BFF"/>
<path d="M329.549 268.7L305.619 254.725C292.575 247.195 292.575 234.945 305.619 227.415L331.739 212.036C344.783 204.507 365.999 204.507 379.041 212.036L402.971 226.011C416.015 233.541 416.015 245.791 402.971 253.321L376.848 268.7C363.811 276.231 342.589 276.231 329.549 268.7Z" fill="url(#paint13_linear_1_3844)"/>
<path d="M353.332 270.558C345.743 270.558 338.155 268.892 332.377 265.552L311.332 253.262C305.686 250.003 302.575 245.643 302.575 240.986C302.575 236.329 305.684 231.967 311.332 228.706L334.299 215.185C345.855 208.512 364.655 208.512 376.215 215.185L397.258 227.477C402.903 230.736 406.015 235.096 406.015 239.755C406.015 244.413 402.908 248.772 397.258 252.033L374.293 265.554C368.512 268.89 360.922 270.558 353.332 270.558ZM332.692 265.014C344.073 271.582 362.595 271.582 373.975 265.014L396.942 251.491C402.39 248.346 405.388 244.178 405.388 239.753C405.388 235.328 402.389 231.158 396.942 228.015L375.897 215.722C364.517 209.154 345.997 209.154 334.612 215.722L311.645 229.244C306.195 232.391 303.196 236.559 303.196 240.984C303.196 245.409 306.197 249.579 311.645 252.722L332.692 265.014Z" fill="#5351AF"/>
<path d="M402.97 253.323L376.853 268.7C363.808 276.231 342.591 276.231 329.55 268.7L305.619 254.726C299.79 251.36 296.574 247.051 295.956 242.643C295.191 248.098 298.406 253.706 305.619 257.87L329.549 271.846C342.593 279.375 363.811 279.375 376.852 271.846L402.97 256.468C410.183 252.304 413.398 246.696 412.633 241.241C412.015 245.65 408.8 249.958 402.97 253.323Z" fill="white"/>
<path opacity="0.4" d="M324.958 268.213L327.165 267.922C326.86 267.774 326.564 267.617 326.27 267.457L324.958 268.213Z" fill="#397BFF" fill-opacity="0.58"/>
<path opacity="0.4" d="M379.629 264.328L379.518 264.335L378.059 264.938C378.615 264.834 379.148 264.627 379.629 264.328Z" fill="#397BFF" fill-opacity="0.58"/>
<path opacity="0.4" d="M405.951 243.463C405.987 243.046 405.984 242.626 405.943 242.209C405.91 242.606 405.853 243.051 405.77 243.545L405.951 243.463Z" fill="#397BFF" fill-opacity="0.58"/>
<path opacity="0.8" d="M412.752 253.335L412.736 253.328C412.744 253.546 412.754 253.762 412.75 253.981C412.646 258.843 409.386 263.69 402.972 267.39L376.848 282.772C363.804 290.301 342.586 290.301 329.545 282.772L305.619 268.795C299.099 265.032 295.837 260.087 295.837 255.142V256.517C295.837 261.462 299.099 266.407 305.619 270.173L329.549 284.157C342.594 291.686 363.811 291.686 376.853 284.157L402.973 268.777C409.387 265.074 412.642 260.229 412.75 255.368C412.75 255.15 412.744 254.934 412.737 254.716L412.753 254.722L412.752 253.335Z" fill="#397BFF" fill-opacity="0.58"/>
<path opacity="0.4" d="M412.752 242.407V229.43L405.771 232.617C408.402 216.719 385.18 253.015 378.063 254.006L383.515 251.75L348.684 254.14L324.958 257.284L327.529 255.8C318.027 251.362 312.908 241.205 307.769 231.945L300.283 236.409L295.837 231.234V244.213C295.837 249.158 299.099 254.103 305.619 257.866L329.548 271.842C342.593 279.371 363.81 279.371 376.852 271.842L402.97 256.463C409.386 252.759 412.646 247.912 412.75 243.047C412.75 242.831 412.743 242.613 412.736 242.397L412.752 242.407Z" fill="#397BFF" fill-opacity="0.58"/>
<path d="M412.752 230.549V215.498L405.771 211.616C403.801 223.528 389.783 231.374 378.063 233.005L383.514 230.749L348.684 243.327L324.959 236.284L327.53 234.801C318.028 230.362 312.909 220.206 307.77 210.947L300.284 215.409L295.838 216.661V232.351C295.838 237.296 299.099 242.241 305.62 246.004L329.549 259.98C342.593 267.509 363.811 267.509 376.853 259.98L402.971 244.602C409.387 240.899 412.646 236.051 412.75 231.187C412.75 230.971 412.744 230.754 412.737 230.536L412.752 230.549Z" fill="url(#paint14_linear_1_3844)"/>
<path d="M412.752 230.549V215.498L405.771 211.616C403.801 223.528 389.783 231.374 378.063 233.005L383.514 230.749L348.684 243.327L324.959 236.284L327.53 234.801C318.028 230.362 312.909 220.206 307.77 210.947L300.284 215.409L295.838 216.661V232.351C295.838 237.296 299.099 242.241 305.62 246.004L329.549 259.98C342.593 267.509 363.811 267.509 376.853 259.98L402.971 244.602C409.387 240.899 412.646 236.051 412.75 231.187C412.75 230.971 412.744 230.754 412.737 230.536L412.752 230.549Z" fill="url(#paint15_linear_1_3844)"/>
<path opacity="0.3" d="M378.061 233.008L383.513 230.752L353.197 241.699V265.633C361.763 265.633 370.33 263.751 376.85 259.985L402.968 244.608C409.384 240.904 412.644 236.057 412.747 231.192C412.747 230.976 412.741 230.76 412.734 230.542L412.75 240.735V215.501L406.372 211.953H405.701C403.528 223.675 389.67 231.393 378.061 233.008Z" fill="#397BFF"/>
<path d="M329.549 244.538L305.619 230.563C292.575 223.033 292.575 210.781 305.619 203.252L331.739 187.874C344.783 180.345 365.999 180.345 379.041 187.874L402.97 201.848C416.014 209.377 416.014 221.63 402.97 229.159L376.848 244.538C363.811 252.065 342.589 252.065 329.549 244.538Z" fill="url(#paint16_linear_1_3844)"/>
<path d="M353.332 246.392C345.743 246.392 338.155 244.724 332.377 241.389L311.332 229.099C305.686 225.839 302.575 221.477 302.575 216.82C302.575 212.164 305.686 207.802 311.332 204.541L334.299 191.021C345.855 184.348 364.655 184.348 376.215 191.021L397.258 203.311C402.905 206.572 406.015 210.932 406.015 215.589C406.015 220.246 402.908 224.608 397.258 227.867L374.293 241.389C368.512 244.724 360.922 246.392 353.332 246.392ZM332.689 240.849C344.074 247.421 362.595 247.416 373.974 240.849L396.941 227.327C402.389 224.182 405.387 220.014 405.387 215.587C405.387 211.16 402.388 206.994 396.941 203.849L375.896 191.559C364.517 184.991 345.996 184.987 334.611 191.559L311.645 205.081C306.195 208.226 303.196 212.394 303.196 216.82C303.196 221.247 306.197 225.413 311.645 228.559L332.689 240.849Z" fill="#5351AF"/>
<path d="M402.97 229.158L376.853 244.536C363.808 252.065 342.591 252.065 329.55 244.536L305.619 230.56C299.79 227.195 296.574 222.885 295.956 218.476C295.191 223.932 298.406 229.541 305.619 233.71L329.549 247.685C342.593 255.215 363.811 255.215 376.852 247.685L402.97 232.308C410.183 228.144 413.398 222.534 412.633 217.074C412.015 221.485 408.8 225.793 402.97 229.158Z" fill="white"/>
<path opacity="0.4" d="M324.958 244.049L327.165 243.757C326.86 243.61 326.564 243.453 326.27 243.293L324.958 244.049Z" fill="#397BFF" fill-opacity="0.58"/>
<path opacity="0.4" d="M379.629 240.159L379.518 240.167L378.059 240.77C378.616 240.666 379.148 240.459 379.629 240.159Z" fill="#397BFF" fill-opacity="0.58"/>
<path opacity="0.4" d="M405.951 219.298C405.987 218.88 405.984 218.46 405.943 218.043C405.911 218.441 405.851 218.884 405.77 219.38L405.951 219.298Z" fill="#397BFF" fill-opacity="0.58"/>
<path opacity="0.8" d="M412.752 229.17L412.736 229.164C412.744 229.38 412.754 229.598 412.75 229.814C412.646 234.679 409.386 239.526 402.972 243.224L376.848 258.608C363.804 266.137 342.586 266.137 329.545 258.608L305.619 244.631C299.099 240.866 295.837 235.921 295.837 230.976V232.357C295.837 237.302 299.099 242.247 305.619 246.01L329.548 259.986C342.593 267.515 363.81 267.515 376.852 259.986L402.972 244.608C409.386 240.905 412.641 236.057 412.75 231.193C412.75 230.977 412.743 230.759 412.736 230.542L412.752 230.549V229.17Z" fill="#397BFF" fill-opacity="0.58"/>
<path opacity="0.4" d="M412.753 218.243V205.264L405.772 208.456C408.402 192.557 385.181 228.855 378.064 229.845L383.515 227.587L348.685 229.977L324.959 233.122L327.53 231.639C318.029 227.203 312.909 217.044 307.77 207.785L300.285 212.249L295.839 207.074V220.048C295.839 224.993 299.1 229.938 305.62 233.703L329.55 247.679C342.594 255.208 363.812 255.208 376.853 247.679L402.971 232.301C409.388 228.596 412.647 223.75 412.751 218.885C412.751 218.667 412.744 218.451 412.737 218.235L412.753 218.243Z" fill="#397BFF" fill-opacity="0.58"/>
<path d="M412.752 206.385V191.334L405.771 187.453C403.801 199.362 389.783 207.211 378.063 208.842L383.515 206.586L348.684 219.162L324.959 212.121L327.53 210.638C318.028 206.199 312.909 196.043 307.77 186.782L300.284 191.246L295.838 192.495V208.185C295.838 213.13 299.099 218.075 305.62 221.84L329.549 235.816C342.594 243.345 363.811 243.345 376.853 235.816L402.971 220.438C409.387 216.735 412.647 211.888 412.751 207.023C412.751 206.807 412.744 206.589 412.737 206.372L412.752 206.385Z" fill="url(#paint17_linear_1_3844)"/>
<path d="M412.752 206.385V191.334L405.771 187.453C403.801 199.362 389.783 207.211 378.063 208.842L383.515 206.586L348.684 219.162L324.959 212.121L327.53 210.638C318.028 206.199 312.909 196.043 307.77 186.782L300.284 191.246L295.838 192.495V208.185C295.838 213.13 299.099 218.075 305.62 221.84L329.549 235.816C342.594 243.345 363.811 243.345 376.853 235.816L402.971 220.438C409.387 216.735 412.647 211.888 412.751 207.023C412.751 206.807 412.744 206.589 412.737 206.372L412.752 206.385Z" fill="url(#paint18_linear_1_3844)"/>
<path opacity="0.3" d="M378.062 208.844L383.513 206.588L353.197 217.535V241.469C361.763 241.469 370.33 239.589 376.85 235.823L402.968 220.446C409.384 216.743 412.644 211.895 412.748 207.031C412.748 206.815 412.741 206.597 412.734 206.38L412.75 216.574V191.336L406.372 187.789H405.701C403.528 199.511 389.67 207.229 378.062 208.844Z" fill="#397BFF"/>
<path d="M329.549 220.371L305.619 206.396C292.575 198.864 292.575 186.614 305.619 179.085L331.739 163.705C344.783 156.176 365.999 156.178 379.042 163.705L402.971 177.681C416.016 185.21 416.016 197.463 402.971 204.99L376.848 220.371C363.811 227.901 342.589 227.901 329.549 220.371Z" fill="url(#paint19_linear_1_3844)"/>
<path d="M353.332 222.227C345.743 222.227 338.155 220.559 332.377 217.223L311.332 204.935C305.687 201.674 302.575 197.314 302.575 192.657C302.575 188 305.687 183.638 311.332 180.377L334.298 166.857C345.853 160.184 364.654 160.184 376.214 166.857L397.256 179.149C402.902 182.408 406.013 186.768 406.013 191.427C406.013 196.085 402.906 200.446 397.256 203.705L374.292 217.226C368.512 220.559 360.923 222.227 353.332 222.227ZM332.689 216.682C344.075 223.256 362.596 223.254 373.974 216.682L396.943 203.162C402.39 200.015 405.389 195.847 405.389 191.422C405.389 186.997 402.389 182.827 396.943 179.684L375.897 167.392C364.512 160.824 345.991 160.824 334.612 167.392L311.645 180.915C306.196 184.061 303.196 188.229 303.196 192.655C303.196 197.082 306.198 201.248 311.645 204.393L332.689 216.682Z" fill="#5351AF"/>
<path d="M402.97 204.992L376.853 220.372C363.808 227.901 342.591 227.901 329.55 220.372L305.62 206.396C299.79 203.031 296.574 198.721 295.956 194.312C295.191 199.768 298.406 205.375 305.62 209.54L329.549 223.515C342.594 231.044 363.811 231.044 376.852 223.515L402.97 208.137C410.183 203.973 413.398 198.366 412.634 192.91C412.015 197.319 408.801 201.629 402.97 204.992Z" fill="white"/>
<path opacity="0.4" d="M324.959 219.883L327.166 219.591C326.861 219.443 326.565 219.286 326.271 219.126L324.959 219.883Z" fill="#397BFF" fill-opacity="0.58"/>
<path opacity="0.4" d="M379.629 215.995L379.519 216.001L378.06 216.604C378.616 216.5 379.148 216.294 379.629 215.995Z" fill="#397BFF" fill-opacity="0.58"/>
<path opacity="0.4" d="M405.952 195.132C405.988 194.715 405.985 194.296 405.943 193.879C405.911 194.275 405.854 194.721 405.771 195.214L405.952 195.132Z" fill="#397BFF" fill-opacity="0.58"/>
<path opacity="0.8" d="M412.753 205.004L412.736 204.997C412.745 205.215 412.755 205.432 412.75 205.65C412.646 210.514 409.387 215.359 402.972 219.059L376.849 234.441C363.804 241.972 342.587 241.972 329.545 234.441L305.616 220.467C299.095 216.702 295.834 211.757 295.834 206.812V208.191C295.834 213.136 299.095 218.081 305.616 221.846L329.545 235.822C342.59 243.351 363.807 243.351 376.849 235.822L402.973 220.447C409.388 216.746 412.642 211.899 412.751 207.038C412.751 206.822 412.745 206.604 412.737 206.388H412.754L412.753 205.004Z" fill="#397BFF" fill-opacity="0.58"/>
<path opacity="0.4" d="M412.752 194.077V181.1L405.771 184.287C408.402 168.389 385.18 204.686 378.063 205.676L383.515 203.42L348.684 205.81L324.959 208.955L327.53 207.472C318.028 203.034 312.909 192.877 307.77 183.617L300.284 188.081L295.838 182.908V195.885C295.838 200.83 299.099 205.775 305.62 209.538L329.549 223.514C342.594 231.043 363.811 231.043 376.853 223.514L402.971 208.136C409.387 204.433 412.647 199.585 412.751 194.727C412.751 194.509 412.744 194.293 412.737 194.075L412.752 194.077Z" fill="#397BFF" fill-opacity="0.58"/>
<path d="M412.752 182.219V167.168L405.771 163.284C403.801 175.195 389.783 183.044 378.063 184.675L383.514 182.416L348.684 194.995L324.959 187.952L327.53 186.468C318.028 182.032 312.909 171.873 307.77 162.615L300.284 167.079L295.838 168.328V184.017C295.838 188.962 299.099 193.907 305.62 197.671L329.549 211.647C342.593 219.176 363.811 219.176 376.853 211.647L402.971 196.269C409.387 192.565 412.646 187.721 412.75 182.86C412.75 182.642 412.744 182.426 412.737 182.208L412.752 182.219Z" fill="url(#paint20_linear_1_3844)"/>
<path d="M412.752 182.219V167.168L405.771 163.284C403.801 175.195 389.783 183.044 378.063 184.675L383.514 182.416L348.684 194.995L324.959 187.952L327.53 186.468C318.028 182.032 312.909 171.873 307.77 162.615L300.284 167.079L295.838 168.328V184.017C295.838 188.962 299.099 193.907 305.62 197.671L329.549 211.647C342.593 219.176 363.811 219.176 376.853 211.647L402.971 196.269C409.387 192.565 412.646 187.721 412.75 182.86C412.75 182.642 412.744 182.426 412.737 182.208L412.752 182.219Z" fill="url(#paint21_linear_1_3844)"/>
<path opacity="0.3" d="M378.061 184.68L383.513 182.418L353.198 193.364V217.299C361.764 217.299 370.33 215.417 376.851 211.651L402.969 196.283C409.386 192.58 412.645 187.735 412.749 182.874C412.749 182.656 412.743 182.44 412.735 182.222L412.752 192.416V167.173L406.374 163.623H405.701C403.528 175.345 389.67 183.063 378.061 184.68Z" fill="#397BFF"/>
<path d="M329.549 196.206L305.619 182.23C292.575 174.701 292.575 162.448 305.619 154.919L331.739 139.541C344.783 132.012 365.999 132.012 379.041 139.541L402.971 153.517C416.015 161.046 416.015 173.299 402.971 180.828L376.848 196.206C363.811 203.735 342.589 203.735 329.549 196.206Z" fill="url(#paint22_linear_1_3844)"/>
<path d="M353.332 198.063C345.745 198.063 338.155 196.396 332.377 193.06L311.331 180.768C305.686 177.509 302.574 173.148 302.574 168.49C302.574 163.831 305.683 159.471 311.331 156.21L334.298 142.69C345.854 136.016 364.654 136.017 376.215 142.69L397.256 154.98C402.902 158.239 406.013 162.6 406.013 167.256C406.013 171.913 402.906 176.275 397.256 179.536L374.292 193.058C368.514 196.394 360.923 198.063 353.332 198.063ZM332.692 192.52C344.075 199.087 362.594 199.087 373.975 192.52L396.942 178.998C402.39 175.853 405.388 171.685 405.388 167.258C405.388 162.831 402.389 158.665 396.942 155.523L375.897 143.231C364.518 136.663 345.997 136.659 334.612 143.231L311.645 156.75C306.196 159.897 303.196 164.065 303.196 168.49C303.196 172.915 306.197 177.084 311.645 180.228L332.692 192.52Z" fill="#5351AF"/>
<path d="M402.97 180.828L376.853 196.206C363.808 203.735 342.591 203.735 329.55 196.206L305.619 182.229C299.79 178.864 296.574 174.556 295.956 170.147C295.191 175.6 298.406 181.21 305.619 185.375L329.549 199.35C342.593 206.88 363.811 206.88 376.852 199.35L402.97 183.973C410.183 179.808 413.398 174.201 412.633 168.745C412.015 173.155 408.8 177.463 402.97 180.828Z" fill="white"/>
<path opacity="0.4" d="M324.959 195.719L327.165 195.427C326.861 195.279 326.565 195.122 326.27 194.963L324.959 195.719Z" fill="#397BFF" fill-opacity="0.58"/>
<path opacity="0.4" d="M379.629 191.829L379.519 191.837L378.059 192.44C378.616 192.336 379.149 192.129 379.629 191.829Z" fill="#397BFF" fill-opacity="0.58"/>
<path opacity="0.4" d="M405.951 170.968C405.987 170.551 405.985 170.131 405.943 169.715C405.911 170.111 405.853 170.556 405.771 171.05L405.951 170.968Z" fill="#397BFF" fill-opacity="0.58"/>
<path opacity="0.8" d="M412.753 180.84L412.736 180.834C412.744 181.05 412.754 181.268 412.75 181.484C412.646 186.349 409.387 191.196 402.972 194.9L376.849 210.277C363.804 217.807 342.587 217.807 329.545 210.277L305.615 196.302C299.095 192.538 295.834 187.593 295.834 182.648V184.027C295.834 188.972 299.095 193.917 305.615 197.681L329.545 211.657C342.589 219.186 363.807 219.186 376.849 211.657L402.968 196.279C409.383 192.575 412.638 187.731 412.746 182.87C412.746 182.652 412.74 182.435 412.732 182.217L412.749 182.224L412.753 180.84Z" fill="#397BFF" fill-opacity="0.58"/>
<path opacity="0.4" d="M535.066 337.03V181.176L526.354 185.154C529.637 165.309 500.65 210.617 491.765 211.855L392.138 270.113L348.658 273.096L209.876 214.196L213.084 212.344C201.225 206.804 194.833 194.127 188.419 182.566L179.075 188.138L173.524 181.68V337.532C173.524 343.706 177.596 349.879 185.733 354.578L324.774 434.851C341.052 444.246 367.54 444.246 383.821 434.851L522.855 354.578C530.863 349.955 534.931 343.905 535.061 337.833C535.067 337.559 535.055 337.596 535.045 337.326L535.066 337.03Z" fill="#397BFF"/>
<path opacity="0.4" d="M535.066 278.619L535.046 278.611C535.056 278.885 535.068 279.154 535.062 279.426C534.932 285.497 530.866 291.546 522.856 296.171L383.821 376.444C367.542 385.839 341.053 385.839 324.774 376.444L185.734 296.171C177.596 291.472 173.526 285.3 173.524 279.126V337.536C173.524 343.71 177.596 349.883 185.734 354.581L324.774 434.854C341.052 444.25 367.541 444.25 383.821 434.854L522.856 354.581C530.864 349.958 534.932 343.909 535.062 337.836C535.068 337.563 535.056 337.295 535.046 337.023L535.066 337.032V278.619Z" fill="#8AB1FF" fill-opacity="0.68"/>
<path d="M535.066 278.431L535.046 278.423C535.056 278.697 535.068 278.966 535.062 279.236C534.932 285.308 530.866 291.358 522.856 295.981L383.821 376.254C367.542 385.65 341.053 385.65 324.774 376.254L185.734 295.981C177.596 291.28 173.526 285.109 173.524 278.936V282.321C173.524 288.493 177.596 294.667 185.734 299.366L324.774 379.639C341.052 389.035 367.541 389.035 383.821 379.639L522.856 299.366C530.864 294.743 534.932 288.693 535.062 282.621C535.068 282.347 535.056 282.078 535.046 281.808L535.066 281.816V278.431Z" fill="#397BFF"/>
<path d="M535.066 182.574V163.789L526.353 158.944C523.89 173.813 506.394 183.607 491.765 185.643L392.138 243.903L348.658 259.603L209.875 187.983L213.082 186.131C201.224 180.592 194.832 167.918 188.418 156.354L179.074 161.927L173.522 163.487V183.076C173.522 189.248 177.594 195.423 185.732 200.122L324.772 280.395C341.05 289.79 367.539 289.79 383.819 280.395L522.854 200.122C530.862 195.499 534.93 189.449 535.06 183.376C535.066 183.103 535.054 182.834 535.044 182.564L535.066 182.574Z" fill="url(#paint23_linear_1_3844)"/>
<path d="M535.066 182.574V163.789L526.353 158.944C523.89 173.813 506.394 183.607 491.765 185.643L392.138 243.903L348.658 259.603L209.875 187.983L213.082 186.131C201.224 180.592 194.832 167.918 188.418 156.354L179.074 161.927L173.522 163.487V183.076C173.522 189.248 177.594 195.423 185.732 200.122L324.772 280.395C341.05 289.79 367.539 289.79 383.819 280.395L522.854 200.122C530.862 195.499 534.93 189.449 535.06 183.376C535.066 183.103 535.054 182.834 535.044 182.564L535.066 182.574Z" fill="#84BCFF"/>
<path opacity="0.3" d="M491.765 185.642L392.138 243.902L354.294 257.568V287.444C364.987 287.444 375.681 285.096 383.822 280.394L522.856 200.121C530.864 195.498 534.933 189.449 535.062 183.376C535.068 183.103 535.056 182.834 535.046 182.564L535.066 335.25V163.789L527.102 159.36H526.269C523.552 173.991 506.255 183.624 491.765 185.642Z" fill="#397BFF"/>
<path d="M263.835 170.678C264.698 169.93 265.632 169.268 266.624 168.702L338.938 126.953C347.404 122.064 361.18 122.064 369.649 126.953L441.965 168.705C442.956 169.271 443.89 169.933 444.753 170.681C450.297 165.818 449.368 159.199 441.965 154.925L369.649 113.172C361.18 108.284 347.405 108.284 338.938 113.172L266.624 154.922C259.22 159.196 258.292 165.815 263.835 170.678Z" fill="url(#paint24_radial_1_3844)"/>
<path d="M522.854 146.746L383.816 66.4726C367.536 57.077 341.045 57.077 324.767 66.4726L185.732 146.746C169.452 156.141 169.452 171.439 185.732 180.838L324.773 261.111C341.051 270.506 367.539 270.506 383.82 261.111L522.854 180.838C539.134 171.436 539.134 156.143 522.854 146.746ZM441.964 172.652L369.649 214.405C361.183 219.293 347.405 219.293 338.938 214.405L266.624 172.654C258.158 167.765 258.158 159.811 266.624 154.922L338.938 113.173C347.404 108.285 361.18 108.285 369.649 113.173L441.965 154.925C450.431 159.81 450.431 167.767 441.965 172.656L441.964 172.652Z" fill="url(#paint25_linear_1_3844)"/>
<path d="M507.305 148.318L381.092 75.4467C366.314 66.9159 342.269 66.914 327.492 75.4467L201.28 148.314C186.503 156.846 186.503 170.728 201.28 179.261L327.494 252.131C342.271 260.664 366.317 260.664 381.095 252.131L507.305 179.262C522.084 170.732 522.084 156.85 507.305 148.318ZM461.736 174.654L373.117 225.817C362.741 231.809 345.858 231.809 335.482 225.817L246.862 174.652C236.485 168.662 236.484 158.914 246.862 152.925L335.48 101.76C345.856 95.7694 362.739 95.7694 373.115 101.76L461.736 152.925C472.107 158.916 472.107 168.664 461.736 174.654Z" fill="#397BFF" fill-opacity="0.09"/>
<path opacity="0.4" d="M507.305 148.318L381.092 75.4467C366.314 66.9159 342.269 66.914 327.492 75.4467L201.28 148.314C186.503 156.846 186.503 170.728 201.28 179.261L327.494 252.131C342.271 260.664 366.317 260.664 381.095 252.131L507.305 179.262C522.084 170.732 522.084 156.85 507.305 148.318ZM461.736 174.654L373.117 225.817C362.741 231.809 345.858 231.809 335.482 225.817L246.862 174.652C236.485 168.662 236.484 158.914 246.862 152.925L335.48 101.76C345.856 95.7694 362.739 95.7694 373.115 101.76L461.736 152.925C472.107 158.916 472.107 168.664 461.736 174.654Z" fill="#397BFF" fill-opacity="0.58"/>
<path d="M522.856 180.839L383.822 261.112C367.542 270.507 341.054 270.507 324.775 261.112L185.735 180.839C178.457 176.636 174.443 171.261 173.673 165.754C172.714 172.56 176.728 179.562 185.735 184.761L324.775 265.034C341.053 274.43 367.541 274.43 383.822 265.034L522.856 184.761C531.86 179.562 535.873 172.565 534.918 165.754C534.146 171.261 530.134 176.636 522.856 180.839Z" fill="white"/>
<path d="M354.295 245.253C345.919 245.253 337.54 243.412 331.164 239.73L223.149 177.368C216.905 173.762 213.469 168.941 213.469 163.788C213.469 158.635 216.905 153.812 223.149 150.206L331.16 87.8453C343.915 80.4857 364.666 80.482 377.424 87.8453L485.441 150.209C491.684 153.815 495.121 158.638 495.121 163.791C495.121 168.944 491.681 173.765 485.441 177.37L377.429 239.73C371.052 243.412 362.674 245.253 354.295 245.253ZM354.295 83.0918C346.059 83.0918 337.825 84.9016 331.554 88.5212L223.539 150.883C217.547 154.34 214.247 158.923 214.247 163.788C214.247 168.653 217.547 173.234 223.539 176.691L331.554 239.05C344.095 246.291 364.497 246.291 377.038 239.05L485.05 176.69C491.041 173.233 494.342 168.65 494.342 163.787C494.342 158.924 491.041 154.341 485.05 150.882L377.035 88.5239C370.764 84.9016 362.528 83.0918 354.292 83.0918H354.295Z" fill="#397BFF"/>
<g opacity="0.4">
<path d="M338.94 214.406L266.624 172.654C258.158 167.765 258.158 159.811 266.624 154.923L338.939 113.173C347.405 108.285 361.181 108.285 369.649 113.173L441.965 154.925C450.431 159.814 450.431 167.768 441.965 172.657L369.651 214.407C361.185 219.294 347.407 219.294 338.94 214.406Z" fill="#397BFF" fill-opacity="0.58"/>
</g>
<path opacity="0.6" d="M412.736 272.024C412.744 272.242 412.754 272.459 412.75 272.677C412.646 277.54 409.387 282.386 402.972 286.086L376.849 301.468C363.804 308.997 342.587 308.997 329.545 301.468L305.619 287.493C299.099 283.729 295.838 278.784 295.838 273.839V316.712C295.838 321.657 299.099 326.602 305.619 330.366L329.549 344.341C342.593 351.871 363.811 351.873 376.852 344.341L402.972 328.964C409.387 325.26 412.641 320.413 412.75 315.554C412.75 315.336 412.743 315.12 412.736 314.902L412.753 314.908V303.05V290.737V278.879V272.031L412.736 272.024Z" fill="#8AB1FF" fill-opacity="0.68"/>
<path opacity="0.5" d="M446.556 168.724C447.645 167.494 448.268 165.92 448.315 164.278V0.448029H446.812L446.556 168.724Z" fill="#397BFF"/>
<path opacity="0.5" d="M262.034 168.724C260.944 167.494 260.322 165.92 260.274 164.278V0.448029H261.777L262.034 168.724Z" fill="#397BFF"/>
<g opacity="0.3">
<path d="M0.00302193 280.993V269.67L3.1364 267.926C4.02123 273.271 10.3117 276.792 15.5705 277.526L51.3859 298.469L67.0155 304.114L116.908 278.37L115.755 277.705C120.019 275.713 122.317 271.157 124.624 267.001L127.982 269.003L129.978 269.564V281.18C129.978 283.398 128.518 285.619 125.589 287.306L75.601 316.165C69.7493 319.54 60.2278 319.54 54.3734 316.165L4.39161 287.308C1.51273 285.646 0.0495438 283.47 0.00302193 281.288C0.00302193 281.189 0.00300501 281.093 0.00847817 280.996L0.00302193 280.993Z" fill="url(#paint26_linear_1_3844)"/>
<path opacity="0.3" d="M15.5716 277.526L51.387 298.469L64.9888 303.382V318.695C61.2926 318.768 57.6391 317.895 54.3744 316.161L4.39268 287.304C1.5138 285.642 0.0506068 283.467 0.00408493 281.284C0.00408493 281.185 0.0041023 281.09 0.0104877 280.992H0.0023033V269.67L2.86477 268.076H3.16486C4.14547 273.338 10.3621 276.801 15.5716 277.526Z" fill="#397BFF"/>
<path d="M75.604 304.655L125.592 275.796C131.444 272.421 131.444 266.92 125.592 263.54L75.604 234.684C69.7523 231.309 60.229 231.309 54.3773 234.684L4.38908 263.543C-1.46264 266.918 -1.46264 272.419 4.38908 275.799L54.3709 304.655C60.229 308.034 69.7514 308.034 75.604 304.655Z" fill="url(#paint27_linear_1_3844)"/>
<g opacity="0.3">
<path d="M75.604 304.655L125.592 275.796C131.444 272.421 131.444 266.92 125.592 263.54L75.604 234.684C69.7523 231.309 60.229 231.309 54.3773 234.684L4.38908 263.543C-1.46264 266.918 -1.46264 272.419 4.38908 275.799L54.3709 304.655C60.229 308.034 69.7514 308.034 75.604 304.655Z" fill="#397BFF"/>
</g>
</g>
<path opacity="0.4" d="M0.00298337 237.72V220.606L3.13636 218.865C4.02119 224.208 10.3117 227.729 15.5705 228.462L51.3859 249.407L67.0154 255.05L116.907 229.303L115.754 228.638C120.018 226.646 122.316 222.089 124.623 217.933L127.981 219.935L129.977 220.498V237.904C129.977 240.122 128.517 242.343 125.588 244.03L75.6001 272.889C69.7484 276.264 60.2269 276.264 54.3725 272.889L4.39063 244.033C1.51175 242.371 0.0486144 240.197 0.00209255 238.012C0.00209255 237.914 0.00207563 237.818 0.00754879 237.72H0.00298337Z" fill="#397BFF"/>
<path d="M0.00277779 222.507V211.182L3.13616 209.441C4.02099 214.786 10.3115 218.307 15.5702 219.038L51.3866 239.983L67.0161 245.626L116.908 219.881L115.755 219.214C120.019 217.222 122.317 212.665 124.624 208.509L127.982 210.516L129.978 211.077V222.687C129.978 224.908 128.518 227.126 125.589 228.816L75.6008 257.675C69.7491 261.05 60.2276 261.05 54.3731 257.675L4.39137 228.816C1.51249 227.154 0.0492996 224.98 0.00277779 222.795C0.00277779 222.699 0.00276087 222.601 0.00823403 222.503L0.00277779 222.507Z" fill="url(#paint28_linear_1_3844)"/>
<path opacity="0.3" d="M15.5716 219.038L51.387 239.982L64.9888 244.896V260.207C61.2927 260.281 57.6388 259.41 54.3744 257.674L4.39268 228.815C1.5138 227.153 0.0506068 224.98 0.00408493 222.795C0.00408493 222.699 0.0041023 222.601 0.0104877 222.503H0.0023033V211.18L2.86477 209.588H3.16486C4.14547 214.849 10.3621 218.312 15.5716 219.038Z" fill="#397BFF"/>
<path d="M75.6038 246.172L125.592 217.313C131.444 213.938 131.444 208.436 125.592 205.057L75.6038 176.198C69.752 172.823 60.2287 172.823 54.377 176.198L4.38884 205.057C-1.46288 208.432 -1.46288 213.932 4.38884 217.311L54.3761 246.172C60.2287 249.547 69.7511 249.547 75.6038 246.172Z" fill="url(#paint29_linear_1_3844)"/>
<path d="M4.39364 217.31L54.3755 246.169C60.229 249.544 69.7504 249.544 75.6022 246.169L125.59 217.31C128.205 215.798 129.649 213.865 129.927 211.887C130.269 214.335 128.826 216.852 125.59 218.722L75.6022 247.578C69.7504 250.953 60.229 250.953 54.3755 247.578L4.39364 218.725C1.15626 216.857 -0.286797 214.341 0.0571001 211.892C0.335319 213.867 1.77747 215.801 4.39364 217.31Z" fill="white"/>
<defs>
<linearGradient id="paint0_linear_1_3844" x1="354" y1="218" x2="354" y2="-7.14796e-07" gradientUnits="userSpaceOnUse">
<stop stop-color="#0575E6"/>
<stop offset="0.744792" stop-color="#3976FF" stop-opacity="0.04"/>
<stop offset="1" stop-color="#3976FF" stop-opacity="0"/>
</linearGradient>
<linearGradient id="paint1_linear_1_3844" x1="212.208" y1="266.26" x2="261.225" y2="481.557" gradientUnits="userSpaceOnUse">
<stop stop-color="#BCBEFF"/>
<stop offset="0.227" stop-color="#AAADF7"/>
<stop offset="0.68" stop-color="#7B82E5"/>
<stop offset="1" stop-color="#5761D7"/>
</linearGradient>
<linearGradient id="paint2_linear_1_3844" x1="173.524" y1="333.603" x2="535.066" y2="333.603" gradientUnits="userSpaceOnUse">
<stop stop-color="#E9E9FD"/>
<stop offset="0.36" stop-color="#D2D2F9"/>
<stop offset="0.706" stop-color="#C4C3F6"/>
<stop offset="1" stop-color="#C0BFF6"/>
</linearGradient>
<radialGradient id="paint3_radial_1_3844" cx="0" cy="0" r="1" gradientUnits="userSpaceOnUse" gradientTransform="translate(176.627 397.656) scale(164.485 164.586)">
<stop stop-color="#42E8E0"/>
<stop offset="0.08" stop-color="#3AC4C8"/>
<stop offset="0.206" stop-color="#2E92A8"/>
<stop offset="0.336" stop-color="#24668B"/>
<stop offset="0.466" stop-color="#1D4374"/>
<stop offset="0.597" stop-color="#162862"/>
<stop offset="0.729" stop-color="#121456"/>
<stop offset="0.862" stop-color="#0F084E"/>
<stop offset="1" stop-color="#0F054C"/>
</radialGradient>
<radialGradient id="paint4_radial_1_3844" cx="0" cy="0" r="1" gradientUnits="userSpaceOnUse" gradientTransform="translate(71.6788 345.999) scale(163.844 164.009)">
<stop stop-color="#42E8E0"/>
<stop offset="0.08" stop-color="#3AC4C8"/>
<stop offset="0.206" stop-color="#2E92A8"/>
<stop offset="0.336" stop-color="#24668B"/>
<stop offset="0.466" stop-color="#1D4374"/>
<stop offset="0.597" stop-color="#162862"/>
<stop offset="0.729" stop-color="#121456"/>
<stop offset="0.862" stop-color="#0F084E"/>
<stop offset="1" stop-color="#0F054C"/>
</radialGradient>
<linearGradient id="paint5_linear_1_3844" x1="305.542" y1="272.339" x2="335.735" y2="352.018" gradientUnits="userSpaceOnUse">
<stop stop-color="#BCBEFF"/>
<stop offset="0.227" stop-color="#AAADF7"/>
<stop offset="0.68" stop-color="#7B82E5"/>
<stop offset="1" stop-color="#5761D7"/>
</linearGradient>
<linearGradient id="paint6_linear_1_3844" x1="305.542" y1="272.339" x2="335.735" y2="352.018" gradientUnits="userSpaceOnUse">
<stop stop-color="#706EC4"/>
<stop offset="0.022" stop-color="#6D6BC1"/>
<stop offset="0.251" stop-color="#5651AC"/>
<stop offset="0.486" stop-color="#463E9D"/>
<stop offset="0.731" stop-color="#3C3393"/>
<stop offset="1" stop-color="#393091"/>
</linearGradient>
<linearGradient id="paint7_linear_1_3844" x1="295.836" y1="288.698" x2="412.754" y2="288.698" gradientUnits="userSpaceOnUse">
<stop stop-color="#E9E9FD"/>
<stop offset="0.36" stop-color="#D2D2F9"/>
<stop offset="0.706" stop-color="#C4C3F6"/>
<stop offset="1" stop-color="#C0BFF6"/>
</linearGradient>
<linearGradient id="paint8_linear_1_3844" x1="305.542" y1="248.175" x2="335.732" y2="327.851" gradientUnits="userSpaceOnUse">
<stop stop-color="#BCBEFF"/>
<stop offset="0.227" stop-color="#AAADF7"/>
<stop offset="0.68" stop-color="#7B82E5"/>
<stop offset="1" stop-color="#5761D7"/>
</linearGradient>
<linearGradient id="paint9_linear_1_3844" x1="305.542" y1="248.175" x2="335.732" y2="327.851" gradientUnits="userSpaceOnUse">
<stop stop-color="#706EC4"/>
<stop offset="0.022" stop-color="#6D6BC1"/>
<stop offset="0.251" stop-color="#5651AC"/>
<stop offset="0.486" stop-color="#463E9D"/>
<stop offset="0.731" stop-color="#3C3393"/>
<stop offset="1" stop-color="#393091"/>
</linearGradient>
<linearGradient id="paint10_linear_1_3844" x1="295.836" y1="264.534" x2="412.754" y2="264.534" gradientUnits="userSpaceOnUse">
<stop stop-color="#E9E9FD"/>
<stop offset="0.36" stop-color="#D2D2F9"/>
<stop offset="0.706" stop-color="#C4C3F6"/>
<stop offset="1" stop-color="#C0BFF6"/>
</linearGradient>
<linearGradient id="paint11_linear_1_3844" x1="305.541" y1="224.011" x2="335.734" y2="303.689" gradientUnits="userSpaceOnUse">
<stop stop-color="#BCBEFF"/>
<stop offset="0.227" stop-color="#AAADF7"/>
<stop offset="0.68" stop-color="#7B82E5"/>
<stop offset="1" stop-color="#5761D7"/>
</linearGradient>
<linearGradient id="paint12_linear_1_3844" x1="305.541" y1="224.011" x2="335.734" y2="303.689" gradientUnits="userSpaceOnUse">
<stop stop-color="#706EC4"/>
<stop offset="0.022" stop-color="#6D6BC1"/>
<stop offset="0.251" stop-color="#5651AC"/>
<stop offset="0.486" stop-color="#463E9D"/>
<stop offset="0.731" stop-color="#3C3393"/>
<stop offset="1" stop-color="#393091"/>
</linearGradient>
<linearGradient id="paint13_linear_1_3844" x1="295.836" y1="240.369" x2="412.754" y2="240.369" gradientUnits="userSpaceOnUse">
<stop stop-color="#E9E9FD"/>
<stop offset="0.36" stop-color="#D2D2F9"/>
<stop offset="0.706" stop-color="#C4C3F6"/>
<stop offset="1" stop-color="#C0BFF6"/>
</linearGradient>
<linearGradient id="paint14_linear_1_3844" x1="305.542" y1="199.847" x2="335.73" y2="279.52" gradientUnits="userSpaceOnUse">
<stop stop-color="#BCBEFF"/>
<stop offset="0.227" stop-color="#AAADF7"/>
<stop offset="0.68" stop-color="#7B82E5"/>
<stop offset="1" stop-color="#5761D7"/>
</linearGradient>
<linearGradient id="paint15_linear_1_3844" x1="305.542" y1="199.847" x2="335.73" y2="279.52" gradientUnits="userSpaceOnUse">
<stop stop-color="#706EC4"/>
<stop offset="0.022" stop-color="#6D6BC1"/>
<stop offset="0.251" stop-color="#5651AC"/>
<stop offset="0.486" stop-color="#463E9D"/>
<stop offset="0.731" stop-color="#3C3393"/>
<stop offset="1" stop-color="#393091"/>
</linearGradient>
<linearGradient id="paint16_linear_1_3844" x1="295.836" y1="216.205" x2="412.753" y2="216.205" gradientUnits="userSpaceOnUse">
<stop stop-color="#E9E9FD"/>
<stop offset="0.36" stop-color="#D2D2F9"/>
<stop offset="0.706" stop-color="#C4C3F6"/>
<stop offset="1" stop-color="#C0BFF6"/>
</linearGradient>
<linearGradient id="paint17_linear_1_3844" x1="305.542" y1="175.682" x2="335.731" y2="255.356" gradientUnits="userSpaceOnUse">
<stop stop-color="#BCBEFF"/>
<stop offset="0.227" stop-color="#AAADF7"/>
<stop offset="0.68" stop-color="#7B82E5"/>
<stop offset="1" stop-color="#5761D7"/>
</linearGradient>
<linearGradient id="paint18_linear_1_3844" x1="305.542" y1="175.682" x2="335.731" y2="255.356" gradientUnits="userSpaceOnUse">
<stop stop-color="#706EC4"/>
<stop offset="0.022" stop-color="#6D6BC1"/>
<stop offset="0.251" stop-color="#5651AC"/>
<stop offset="0.486" stop-color="#463E9D"/>
<stop offset="0.731" stop-color="#3C3393"/>
<stop offset="1" stop-color="#393091"/>
</linearGradient>
<linearGradient id="paint19_linear_1_3844" x1="295.836" y1="192.039" x2="412.754" y2="192.039" gradientUnits="userSpaceOnUse">
<stop stop-color="#E9E9FD"/>
<stop offset="0.36" stop-color="#D2D2F9"/>
<stop offset="0.706" stop-color="#C4C3F6"/>
<stop offset="1" stop-color="#C0BFF6"/>
</linearGradient>
<linearGradient id="paint20_linear_1_3844" x1="305.542" y1="151.515" x2="335.729" y2="231.187" gradientUnits="userSpaceOnUse">
<stop stop-color="#BCBEFF"/>
<stop offset="0.227" stop-color="#AAADF7"/>
<stop offset="0.68" stop-color="#7B82E5"/>
<stop offset="1" stop-color="#5761D7"/>
</linearGradient>
<linearGradient id="paint21_linear_1_3844" x1="305.542" y1="151.515" x2="335.729" y2="231.187" gradientUnits="userSpaceOnUse">
<stop stop-color="#706EC4"/>
<stop offset="0.022" stop-color="#6D6BC1"/>
<stop offset="0.251" stop-color="#5651AC"/>
<stop offset="0.486" stop-color="#463E9D"/>
<stop offset="0.731" stop-color="#3C3393"/>
<stop offset="1" stop-color="#393091"/>
</linearGradient>
<linearGradient id="paint22_linear_1_3844" x1="295.836" y1="167.873" x2="412.754" y2="167.873" gradientUnits="userSpaceOnUse">
<stop stop-color="#E9E9FD"/>
<stop offset="0.36" stop-color="#D2D2F9"/>
<stop offset="0.706" stop-color="#C4C3F6"/>
<stop offset="1" stop-color="#C0BFF6"/>
</linearGradient>
<linearGradient id="paint23_linear_1_3844" x1="212.208" y1="96.4466" x2="261.225" y2="311.744" gradientUnits="userSpaceOnUse">
<stop stop-color="#BCBEFF"/>
<stop offset="0.227" stop-color="#AAADF7"/>
<stop offset="0.68" stop-color="#7B82E5"/>
<stop offset="1" stop-color="#5761D7"/>
</linearGradient>
<radialGradient id="paint24_radial_1_3844" cx="0" cy="0" r="1" gradientUnits="userSpaceOnUse" gradientTransform="translate(71.6788 176.186) scale(163.844 164.009)">
<stop stop-color="#42E8E0"/>
<stop offset="0.08" stop-color="#3AC4C8"/>
<stop offset="0.206" stop-color="#2E92A8"/>
<stop offset="0.336" stop-color="#24668B"/>
<stop offset="0.466" stop-color="#1D4374"/>
<stop offset="0.597" stop-color="#162862"/>
<stop offset="0.729" stop-color="#121456"/>
<stop offset="0.862" stop-color="#0F084E"/>
<stop offset="1" stop-color="#0F054C"/>
</radialGradient>
<linearGradient id="paint25_linear_1_3844" x1="173.522" y1="163.792" x2="535.064" y2="163.792" gradientUnits="userSpaceOnUse">
<stop stop-color="#E9E9FD"/>
<stop offset="0.36" stop-color="#D2D2F9"/>
<stop offset="0.706" stop-color="#C4C3F6"/>
<stop offset="1" stop-color="#C0BFF6"/>
</linearGradient>
<linearGradient id="paint26_linear_1_3844" x1="117.11" y1="247.15" x2="94.7123" y2="328.854" gradientUnits="userSpaceOnUse">
<stop stop-color="#BCBEFF"/>
<stop offset="0.227" stop-color="#AAADF7"/>
<stop offset="0.68" stop-color="#7B82E5"/>
<stop offset="1" stop-color="#5761D7"/>
</linearGradient>
<linearGradient id="paint27_linear_1_3844" x1="129.981" y1="269.671" x2="0.000289917" y2="269.671" gradientUnits="userSpaceOnUse">
<stop stop-color="#E9E9FD"/>
<stop offset="0.36" stop-color="#D2D2F9"/>
<stop offset="0.706" stop-color="#C4C3F6"/>
<stop offset="1" stop-color="#C0BFF6"/>
</linearGradient>
<linearGradient id="paint28_linear_1_3844" x1="117.11" y1="188.658" x2="94.7113" y2="270.363" gradientUnits="userSpaceOnUse">
<stop stop-color="#BCBEFF"/>
<stop offset="0.227" stop-color="#AAADF7"/>
<stop offset="0.68" stop-color="#7B82E5"/>
<stop offset="1" stop-color="#5761D7"/>
</linearGradient>
<linearGradient id="paint29_linear_1_3844" x1="129.981" y1="211.185" x2="4.57764e-05" y2="211.185" gradientUnits="userSpaceOnUse">
<stop stop-color="#E9E9FD"/>
<stop offset="0.36" stop-color="#D2D2F9"/>
<stop offset="0.706" stop-color="#C4C3F6"/>
<stop offset="1" stop-color="#C0BFF6"/>
</linearGradient>
</defs>
</svg>
